<svg width="378" height="388" viewBox="0 0 378 388" xmlns="http://www.w3.org/2000/svg" xmlns:xlink="http://www.w3.org/1999/xlink"><title>configuration_management</title><defs><linearGradient x1="50%" y1="0%" x2="50%" y2="119.992%" id="b"><stop stop-color="#FAD961" offset="0%"/><stop stop-color="#F76B1C" offset="100%"/></linearGradient><path d="M50 76h248a6 6 0 0 1 6 6v258a6 6 0 0 1-6 6H50a6 6 0 0 1-6-6V82a6 6 0 0 1 6-6z" id="a"/><mask id="c" x="0" y="0" width="260" height="270" fill="#fff"><use xlink:href="#a"/></mask></defs><g fill="none" fill-rule="evenodd"><path d="M305.414 135.744V91.492a15.538 15.538 0 0 0 5.36-3.078l38.639 22.12c-9.889 14.093-25.794 23.72-44 25.21zm-53.87-25.208l38.638-22.12a15.594 15.594 0 0 0 5.36 3.076v44.252c-18.205-1.49-34.11-11.117-43.999-25.208zm43.998-92.542v44.25a15.588 15.588 0 0 0-5.362 3.076l-38.637-22.123c9.889-14.088 25.794-23.718 44-25.203zm53.868 25.203L310.774 65.32a15.532 15.532 0 0 0-5.36-3.076v-44.25c18.205 1.485 34.108 11.115 43.996 25.203zm-64.183 36.75l-38.639 22.12a58.305 58.305 0 0 1-5.703-25.2 58.36 58.36 0 0 1 5.703-25.2l38.639 22.122a15.437 15.437 0 0 0 0 6.157zm69.141 22.12l-38.641-22.123a15.394 15.394 0 0 0 0-6.155l38.639-22.124a58.301 58.301 0 0 1 5.705 25.203c0 9.01-2.05 17.549-5.703 25.198zM378 71.968l-8.373-1.579a67.926 67.926 0 0 0-6.012-22.193l6.466-5.52-4.936-8.488-8.082 2.797a69.745 69.745 0 0 0-16.372-16.232l2.826-8.004-8.554-4.907-5.574 6.414a69.297 69.297 0 0 0-22.384-5.959L305.414 0h-9.872l-1.589 8.298a69.329 69.329 0 0 0-22.388 5.962l-5.57-6.41-8.549 4.895 2.819 8.007a69.823 69.823 0 0 0-16.374 16.237l-8.073-2.795-4.94 8.477 6.463 5.523a67.86 67.86 0 0 0-6.012 22.204l-8.366 1.57-.002 9.794 8.368 1.579a67.832 67.832 0 0 0 6.012 22.198l-6.463 5.518 4.938 8.485 8.075-2.795a69.766 69.766 0 0 0 16.374 16.234l-2.824 8.005 8.554 4.9 5.572-6.41a69.374 69.374 0 0 0 22.389 5.962l1.581 8.295 9.882.003 1.591-8.298a69.365 69.365 0 0 0 22.384-5.964l5.565 6.411 8.558-4.896-2.82-8.012a69.734 69.734 0 0 0 16.368-16.233l8.073 2.802 4.945-8.484-6.468-5.53a67.851 67.851 0 0 0 6.012-22.191l8.368-1.574.005-9.798z" fill="#D8D8D8" fill-rule="nonzero" opacity=".8"/><g fill="#D8D8D8" fill-rule="nonzero" opacity=".8"><path d="M43.973 331.655c-6.715 0-12.177 5.418-12.177 12.082 0 6.663 5.462 12.084 12.177 12.084 6.722 0 12.19-5.42 12.19-12.084s-5.468-12.082-12.19-12.082m0 26.556c-8.043 0-14.587-6.494-14.587-14.474s6.544-14.471 14.587-14.471c8.05 0 14.601 6.491 14.601 14.47 0 7.98-6.55 14.475-14.601 14.475M31.676 375.4l.421.074a34.08 34.08 0 0 0 6.161 1.653c.53.089.938.514.998 1.042l.771 6.716 3.953.062 3.878-.01.844-6.768c.062-.526.47-.951.995-1.04 2.128-.36 4.196-.9 6.14-1.614l.54-.084c.349.024.67.2.879.48l4.061 5.419 6.802-3.832-2.695-6.296a1.192 1.192 0 0 1 .338-1.395 33.954 33.954 0 0 0 4.512-4.473c.34-.408.918-.542 1.41-.334l6.261 2.695 3.97-6.685-5.495-4.11a1.19 1.19 0 0 1-.41-1.378 33.133 33.133 0 0 0 1.653-6.114c.09-.523.519-.925 1.051-.987l6.768-.776.058-7.753-6.826-.834a1.198 1.198 0 0 1-1.067-1.188 34.935 34.935 0 0 0-1.64-5.918 1.191 1.191 0 0 1 .413-1.373l5.48-4.024-3.868-6.744-6.346 2.67c-.496.204-1.082.075-1.422-.341a31.753 31.753 0 0 0-4.502-4.458 1.187 1.187 0 0 1-.309-1.46l2.695-6.164-6.747-3.918-4.148 5.445c-.315.43-.887.592-1.386.408a34.6 34.6 0 0 0-6.167-1.636 1.198 1.198 0 0 1-1.005-1.178l-.774-6.583-7.821-.057-.844 6.769c0 .583-.417.953-.998 1.05a33.979 33.979 0 0 0-6.158 1.652 1.204 1.204 0 0 1-1.388-.409l-4.074-5.447-6.804 3.823 2.697 6.302a1.19 1.19 0 0 1-.337 1.396 34.373 34.373 0 0 0-4.5 4.48c-.343.41-.916.537-1.408.334L10 319.785l-3.96 6.685 5.496 4.11c.431.315.597.879.412 1.373a33.357 33.357 0 0 0-1.637 6.117c-.091.525-.518.93-1.053.989l-6.787.772-.06 7.753 6.852.838c.535.06.961.464 1.053.99.36 2.118.909 4.176 1.636 6.113.186.497.02 1.059-.412 1.374l-5.483 4.026 3.861 6.744 6.37-2.673a1.223 1.223 0 0 1 1.408.332 34.66 34.66 0 0 0 4.498 4.48c.412.339.55.908.337 1.395l-2.723 6.214 6.743 3.926 4.158-5.46a1.2 1.2 0 0 1 .967-.482m12.306 11.936H40.1c-1.237-.019-2.312-.967-2.469-2.164l-.67-5.85a37.085 37.085 0 0 1-4.85-1.304l-3.537 4.733c-.719.958-2.198 1.264-3.237.655l-6.708-3.84a2.473 2.473 0 0 1-1.034-3.098l2.367-5.405a37.687 37.687 0 0 1-3.531-3.524l-5.472 2.351c-1.099.478-2.525.012-3.13-1.032l-3.874-6.651a2.465 2.465 0 0 1 .668-3.202l4.765-3.5a35.325 35.325 0 0 1-1.287-4.812l-5.908-.669C.964 349.88 0 348.81 0 347.584v-7.687c0-1.225.964-2.298 2.193-2.441l5.903-.67a35.842 35.842 0 0 1 1.287-4.816l-4.763-3.498c-.993-.73-1.287-2.136-.665-3.196l3.878-6.659c.603-1.037 2.013-1.505 3.131-1.023l5.464 2.349a36.822 36.822 0 0 1 3.534-3.522l-2.367-5.406c-.492-1.128-.039-2.49 1.034-3.104l6.717-3.842c1.046-.6 2.514-.286 3.228.662l3.54 4.735a36.666 36.666 0 0 1 4.855-1.302l.662-5.839c.16-1.228 1.242-2.174 2.469-2.174h7.76c1.247 0 2.329.958 2.457 2.184l.677 5.827c1.646.32 3.273.752 4.854 1.29l3.534-4.723c.725-.958 2.2-1.257 3.234-.65l6.708 3.837a2.449 2.449 0 0 1 1.034 3.099l-2.367 5.404a34.446 34.446 0 0 1 3.555 3.522l5.452-2.349c1.07-.475 2.512-.02 3.122 1.023l3.88 6.66c.61 1.069.318 2.466-.658 3.193l-4.767 3.502a36.82 36.82 0 0 1 1.301 4.817l5.884.671c1.224.134 2.19 1.202 2.19 2.435v7.695c0 1.23-.966 2.299-2.2 2.432l-5.874.674a35.837 35.837 0 0 1-1.299 4.814l4.76 3.5c.998.739 1.287 2.146.66 3.205l-3.877 6.649a2.502 2.502 0 0 1-3.134 1.027l-5.44-2.344a36.171 36.171 0 0 1-3.555 3.517l2.37 5.407c.5 1.132.04 2.496-1.05 3.103l-6.704 3.84c-1.02.597-2.502.296-3.223-.655l-3.531-4.714c-1.562.53-3.191.96-4.86 1.283l-.676 5.832c-.128 1.212-1.203 2.17-2.44 2.17l-3.895.01"/><path d="M43.976 370.84h-.002c-15.072 0-27.332-12.159-27.332-27.1 0-14.933 12.26-27.092 27.332-27.092h.002c15.07 0 27.328 12.159 27.328 27.093 0 14.94-12.258 27.094-27.328 27.099zm0-55.97h-.002c-16.061 0-29.125 12.953-29.125 28.87 0 15.925 13.064 28.877 29.125 28.877h.002c16.06-.002 29.126-12.955 29.126-28.876 0-15.918-13.066-28.87-29.126-28.87z"/><path d="M44.548 357.64c-7.427 0-13.447-5.97-13.447-13.331 0-7.359 6.02-13.33 13.447-13.33 7.428 0 13.446 5.971 13.446 13.33 0 7.361-6.018 13.33-13.446 13.33zm0-33.711c-11.337 0-20.562 9.145-20.562 20.38 0 11.24 9.225 20.382 20.562 20.382 11.336 0 20.558-9.143 20.558-20.382 0-11.235-9.222-20.38-20.558-20.38z"/></g><rect stroke="url(#b)" stroke-width="13" fill="#FAFAFA" fill-rule="nonzero" x="45.035" y="76.868" width="258.398" height="267.94" rx="2"/><use stroke="#D8D8D8" mask="url(#c)" stroke-width="2" stroke-linecap="square" stroke-linejoin="round" stroke-dasharray="3" xlink:href="#a"/><g fill-rule="nonzero"><path d="M65.054 308.607v9.747l8.657 4.901 8.657-4.901v-9.747l-8.657-4.9-8.657 4.9zm-2.473 11.203v-12.659l11.13-6.302 11.13 6.302v12.66l-11.13 6.3-11.13-6.3z" fill="#BFBFBF"/><path d="M78.857 313.017c0 2.817-2.304 5.101-5.146 5.101s-5.146-2.284-5.146-5.101 2.304-5.101 5.146-5.101 5.146 2.284 5.146 5.1" fill="#666B6F"/><path d="M78.857 293.446c0 2.766-2.304 20.035-5.146 20.035s-5.146-17.269-5.146-20.035c0-2.766 2.304-5.008 5.146-5.008s5.146 2.242 5.146 5.008" fill="#FBB200"/></g><g fill-rule="nonzero"><path d="M125.594 309.144v9.746l8.655 4.902 8.658-4.902v-9.746l-8.658-4.901-8.655 4.901zm-2.474 11.203v-12.66l11.13-6.301 11.13 6.302v12.659l-11.13 6.301-11.13-6.301z" fill="#BFBFBF"/><path d="M139.396 314.482c0 2.818-2.304 5.1-5.146 5.1s-5.146-2.282-5.146-5.1c0-2.818 2.304-5.102 5.146-5.102s5.146 2.284 5.146 5.102" fill="#666B6F"/><path d="M139.396 294.91c0 2.766-2.304 20.035-5.146 20.035s-5.146-17.269-5.146-20.035c0-2.766 2.304-5.008 5.146-5.008s5.146 2.242 5.146 5.008" fill="#FBB200"/></g><g fill-rule="nonzero"><path d="M96.062 308.607v9.747l8.657 4.901 8.657-4.901v-9.747l-8.657-4.9-8.657 4.9zM93.59 319.81v-12.659l11.13-6.302 11.13 6.302v12.66l-11.13 6.3-11.13-6.3z" fill="#BFBFBF"/><path d="M109.865 313.017c0 2.817-2.304 5.101-5.146 5.101s-5.146-2.284-5.146-5.101 2.304-5.101 5.146-5.101 5.146 2.284 5.146 5.1" fill="#666B6F"/><path d="M109.865 293.446c0 2.766-2.304 20.035-5.146 20.035s-5.146-17.269-5.146-20.035c0-2.766 2.304-5.008 5.146-5.008s5.146 2.242 5.146 5.008" fill="#FBB200"/></g><path stroke="#EEE" d="M55.29 87.117h237.89v247.442H55.29z"/><g fill="#BFBFBF" fill-rule="nonzero"><path d="M144.703 183.019c0 1.617-1.322 2.928-2.953 2.928-1.63 0-2.953-1.311-2.953-2.928s1.322-2.928 2.953-2.928c1.63 0 2.953 1.31 2.953 2.928M134.367 183.019c0 1.617-1.322 2.928-2.953 2.928-1.63 0-2.953-1.311-2.953-2.928s1.322-2.928 2.953-2.928c1.63 0 2.953 1.31 2.953 2.928M124.031 183.019c0 1.617-1.322 2.928-2.953 2.928-1.63 0-2.953-1.311-2.953-2.928s1.322-2.928 2.953-2.928c1.631 0 2.953 1.31 2.953 2.928M112.219 183.019c0 1.617-1.323 2.928-2.953 2.928-1.631 0-2.954-1.311-2.954-2.928s1.323-2.928 2.954-2.928c1.63 0 2.953 1.31 2.953 2.928M101.883 183.019c0 1.617-1.322 2.928-2.953 2.928-1.631 0-2.953-1.311-2.953-2.928s1.322-2.928 2.953-2.928c1.63 0 2.953 1.31 2.953 2.928M90.07 183.019c0 1.617-1.322 2.928-2.953 2.928-1.63 0-2.953-1.311-2.953-2.928s1.322-2.928 2.953-2.928c1.631 0 2.953 1.31 2.953 2.928M79.734 183.019c0 1.617-1.322 2.928-2.953 2.928-1.63 0-2.953-1.311-2.953-2.928s1.322-2.928 2.953-2.928c1.631 0 2.953 1.31 2.953 2.928M67.922 183.019c0 1.617-1.322 2.928-2.953 2.928-1.631 0-2.953-1.311-2.953-2.928s1.322-2.928 2.953-2.928c1.63 0 2.953 1.31 2.953 2.928M144.703 172.77c0 1.617-1.322 2.928-2.953 2.928-1.63 0-2.953-1.311-2.953-2.928s1.322-2.928 2.953-2.928c1.63 0 2.953 1.31 2.953 2.928M134.367 172.77c0 1.617-1.322 2.928-2.953 2.928-1.63 0-2.953-1.311-2.953-2.928s1.322-2.928 2.953-2.928c1.63 0 2.953 1.31 2.953 2.928M124.031 172.77c0 1.617-1.322 2.928-2.953 2.928-1.63 0-2.953-1.311-2.953-2.928s1.322-2.928 2.953-2.928c1.631 0 2.953 1.31 2.953 2.928M112.219 172.77c0 1.617-1.323 2.928-2.953 2.928-1.631 0-2.954-1.311-2.954-2.928s1.323-2.928 2.954-2.928c1.63 0 2.953 1.31 2.953 2.928M101.883 172.77c0 1.617-1.322 2.928-2.953 2.928-1.631 0-2.953-1.311-2.953-2.928s1.322-2.928 2.953-2.928c1.63 0 2.953 1.31 2.953 2.928M90.07 172.77c0 1.617-1.322 2.928-2.953 2.928-1.63 0-2.953-1.311-2.953-2.928s1.322-2.928 2.953-2.928c1.631 0 2.953 1.31 2.953 2.928M79.734 172.77c0 1.617-1.322 2.928-2.953 2.928-1.63 0-2.953-1.311-2.953-2.928s1.322-2.928 2.953-2.928c1.631 0 2.953 1.31 2.953 2.928M67.922 172.77c0 1.617-1.322 2.928-2.953 2.928-1.631 0-2.953-1.311-2.953-2.928s1.322-2.928 2.953-2.928c1.63 0 2.953 1.31 2.953 2.928M144.703 162.52c0 1.618-1.322 2.93-2.953 2.93-1.63 0-2.953-1.312-2.953-2.93 0-1.616 1.322-2.928 2.953-2.928 1.63 0 2.953 1.312 2.953 2.929M134.367 162.52c0 1.618-1.322 2.93-2.953 2.93-1.63 0-2.953-1.312-2.953-2.93 0-1.616 1.322-2.928 2.953-2.928 1.63 0 2.953 1.312 2.953 2.929M124.031 162.52c0 1.618-1.322 2.93-2.953 2.93-1.63 0-2.953-1.312-2.953-2.93 0-1.616 1.322-2.928 2.953-2.928 1.631 0 2.953 1.312 2.953 2.929M112.219 162.52c0 1.618-1.323 2.93-2.953 2.93-1.631 0-2.954-1.312-2.954-2.93 0-1.616 1.323-2.928 2.954-2.928 1.63 0 2.953 1.312 2.953 2.929M101.883 162.52c0 1.618-1.322 2.93-2.953 2.93-1.631 0-2.953-1.312-2.953-2.93 0-1.616 1.322-2.928 2.953-2.928 1.63 0 2.953 1.312 2.953 2.929M90.07 162.52c0 1.618-1.322 2.93-2.953 2.93-1.63 0-2.953-1.312-2.953-2.93 0-1.616 1.322-2.928 2.953-2.928 1.631 0 2.953 1.312 2.953 2.929M79.734 162.52c0 1.618-1.322 2.93-2.953 2.93-1.63 0-2.953-1.312-2.953-2.93 0-1.616 1.322-2.928 2.953-2.928 1.631 0 2.953 1.312 2.953 2.929M67.922 162.52c0 1.618-1.322 2.93-2.953 2.93-1.631 0-2.953-1.312-2.953-2.93 0-1.616 1.322-2.928 2.953-2.928 1.63 0 2.953 1.312 2.953 2.929M144.703 150.808c0 1.617-1.322 2.928-2.953 2.928-1.63 0-2.953-1.311-2.953-2.928 0-1.618 1.322-2.929 2.953-2.929 1.63 0 2.953 1.311 2.953 2.929M134.367 150.808c0 1.617-1.322 2.928-2.953 2.928-1.63 0-2.953-1.311-2.953-2.928 0-1.618 1.322-2.929 2.953-2.929 1.63 0 2.953 1.311 2.953 2.929M124.031 150.808c0 1.617-1.322 2.928-2.953 2.928-1.63 0-2.953-1.311-2.953-2.928 0-1.618 1.322-2.929 2.953-2.929 1.631 0 2.953 1.311 2.953 2.929M112.219 150.808c0 1.617-1.323 2.928-2.953 2.928-1.631 0-2.954-1.311-2.954-2.928 0-1.618 1.323-2.929 2.954-2.929 1.63 0 2.953 1.311 2.953 2.929M101.883 150.808c0 1.617-1.322 2.928-2.953 2.928-1.631 0-2.953-1.311-2.953-2.928 0-1.618 1.322-2.929 2.953-2.929 1.63 0 2.953 1.311 2.953 2.929M87.117 153.736c-1.63 0-2.953-1.311-2.953-2.928 0-1.618 1.322-2.929 2.953-2.929 1.631 0 2.953 1.311 2.953 2.929 0 1.617-1.322 2.928-2.953 2.928zM79.734 150.808c0 1.617-1.322 2.928-2.953 2.928-1.63 0-2.953-1.311-2.953-2.928 0-1.618 1.322-2.929 2.953-2.929 1.631 0 2.953 1.311 2.953 2.929M67.922 150.808c0 1.617-1.322 2.928-2.953 2.928-1.631 0-2.953-1.311-2.953-2.928 0-1.618 1.322-2.929 2.953-2.929 1.63 0 2.953 1.311 2.953 2.929M144.703 139.094c0 1.617-1.322 2.929-2.953 2.929-1.63 0-2.953-1.312-2.953-2.929 0-1.617 1.322-2.928 2.953-2.928 1.63 0 2.953 1.311 2.953 2.928M134.367 139.094c0 1.617-1.322 2.929-2.953 2.929-1.63 0-2.953-1.312-2.953-2.929 0-1.617 1.322-2.928 2.953-2.928 1.63 0 2.953 1.311 2.953 2.928M124.031 139.094c0 1.617-1.322 2.929-2.953 2.929-1.63 0-2.953-1.312-2.953-2.929 0-1.617 1.322-2.928 2.953-2.928 1.631 0 2.953 1.311 2.953 2.928M112.219 139.094c0 1.617-1.323 2.929-2.953 2.929-1.631 0-2.954-1.312-2.954-2.929 0-1.617 1.323-2.928 2.954-2.928 1.63 0 2.953 1.311 2.953 2.928M101.883 139.094c0 1.617-1.322 2.929-2.953 2.929-1.631 0-2.953-1.312-2.953-2.929 0-1.617 1.322-2.928 2.953-2.928 1.63 0 2.953 1.311 2.953 2.928M90.07 139.094c0 1.617-1.322 2.929-2.953 2.929-1.63 0-2.953-1.312-2.953-2.929 0-1.617 1.322-2.928 2.953-2.928 1.631 0 2.953 1.311 2.953 2.928M79.734 139.094c0 1.617-1.322 2.929-2.953 2.929-1.63 0-2.953-1.312-2.953-2.929 0-1.617 1.322-2.928 2.953-2.928 1.631 0 2.953 1.311 2.953 2.928M67.922 139.094c0 1.617-1.322 2.929-2.953 2.929-1.631 0-2.953-1.312-2.953-2.929 0-1.617 1.322-2.928 2.953-2.928 1.63 0 2.953 1.311 2.953 2.928"/></g><path d="M153.563 88.312V334.83" stroke="#EEE" stroke-linecap="square"/><g transform="translate(168.328 256.226)"><g stroke-linecap="round" stroke="#979797" stroke-width="4"><path d="M8.715.454v69.961M37.146.454v69.961M65.576.454v69.961M96.584.454v69.961"/></g><ellipse stroke="#FFF" fill="#FBB200" fill-rule="nonzero" cx="8.121" cy="30.015" rx="8.121" ry="8.053"/><ellipse stroke="#FFF" fill="#FBB200" fill-rule="nonzero" cx="37.652" cy="50.513" rx="8.121" ry="8.053"/><ellipse stroke="#FFF" fill="#FBB200" fill-rule="nonzero" cx="65.707" cy="19.766" rx="8.121" ry="8.053"/><ellipse stroke="#FFF" fill="#FBB200" fill-rule="nonzero" cx="96.715" cy="19.766" rx="8.121" ry="8.053"/></g><g fill="#BFBFBF" fill-rule="nonzero"><path d="M211.88 220.533c0 2.802-2.292 5.072-5.117 5.072-2.826 0-5.117-2.27-5.117-5.072 0-2.801 2.29-5.073 5.117-5.073 2.825 0 5.116 2.272 5.116 5.073"/><path d="M206.763 211.853c-4.828 0-8.756 3.894-8.756 8.68s3.928 8.68 8.756 8.68 8.755-3.894 8.755-8.68-3.927-8.68-8.755-8.68zm0 19.839c-6.207 0-11.257-5.006-11.257-11.16 0-6.152 5.05-11.158 11.257-11.158s11.257 5.006 11.257 11.159c0 6.153-5.05 11.159-11.257 11.159z"/></g><g fill-rule="nonzero"><path d="M185.842 220.533c0 5.603-4.581 10.144-10.233 10.144-5.653 0-10.234-4.541-10.234-10.144s4.581-10.145 10.234-10.145c5.652 0 10.233 4.542 10.233 10.145" fill="#BFBFBF"/><path fill="#666B6F" d="M169.264 228.648l-1.842-1.826 7.368-7.304 1.842 1.826-7.368 7.304"/></g><g fill="#BFBFBF" fill-rule="nonzero"><path d="M272.418 220.533c0 2.802-2.29 5.072-5.116 5.072-2.826 0-5.117-2.27-5.117-5.072 0-2.801 2.29-5.073 5.117-5.073 2.825 0 5.116 2.272 5.116 5.073"/><path d="M267.302 211.853c-4.828 0-8.756 3.894-8.756 8.68s3.928 8.68 8.756 8.68 8.755-3.894 8.755-8.68-3.927-8.68-8.755-8.68zm0 19.839c-6.207 0-11.257-5.006-11.257-11.16 0-6.152 5.05-11.158 11.257-11.158s11.257 5.006 11.257 11.159c0 6.153-5.05 11.159-11.257 11.159z"/></g><g fill-rule="nonzero"><path d="M246.381 220.533c0 5.603-4.581 10.144-10.233 10.144s-10.234-4.541-10.234-10.144 4.582-10.145 10.234-10.145 10.233 4.542 10.233 10.145" fill="#BFBFBF"/><path fill="#666B6F" d="M229.803 228.648l-1.842-1.826 7.368-7.304 1.842 1.826-7.368 7.304"/></g><g fill-rule="nonzero"><path fill="#BFBFBF" d="M63.492 265.66h10.766v-11.785H63.492z"/><path fill="#666B6F" d="M80.718 265.66h10.767v-11.785H80.718z"/><path fill="#7D8387" d="M96.868 265.66h10.766v-11.785H96.868z"/><path fill="#BFBFBF" d="M114.094 265.66h10.766v-11.785h-10.766z"/><path fill="#7D8387" d="M131.32 265.66h10.766v-11.785H131.32zM63.492 249.589h10.766v-11.786H63.492z"/><path fill="#BFBFBF" d="M80.718 249.589h10.767v-11.786H80.718z"/><path fill="#7D8387" d="M96.868 249.589h10.766v-11.786H96.868z"/><path fill="#BFBFBF" d="M114.094 249.589h10.766v-11.786h-10.766z"/><path fill="#666B6F" d="M131.32 249.589h10.766v-11.786H131.32z"/><path fill="#BFBFBF" d="M63.492 232.446h10.766V220.66H63.492zM80.718 232.446h10.767V220.66H80.718z"/><path fill="#666B6F" d="M96.868 232.446h10.766V220.66H96.868z"/><path fill="#BFBFBF" d="M114.094 232.446h10.766V220.66h-10.766zM131.32 232.446h10.766V220.66H131.32zM63.492 215.303h10.766v-11.786H63.492z"/><path fill="#7D8387" d="M80.718 215.303h10.767v-11.786H80.718zM96.868 215.303h10.766v-11.786H96.868z"/><path fill="#BFBFBF" d="M114.094 215.303h10.766v-11.786h-10.766z"/><path fill="#7D8387" d="M131.32 215.303h10.766v-11.786H131.32z"/></g><path d="M56.1 128.845h97.01" stroke-opacity=".393" stroke="#BFBFBF" stroke-linecap="square"/><path d="M56.1 276.725h97.01M152.55 241.585h137.597M56.1 197.66h234.32" stroke="#EEE" stroke-linecap="square"/><g fill-rule="nonzero"><path fill="#7D8387" d="M60.54 114.204h17.718v-17.57H60.539zM128.46 114.204h17.72v-17.57h-17.72zM104.836 114.204h17.719v-17.57h-17.72z"/><path fill="#FBB200" d="M82.688 114.204h17.718v-17.57H82.687z"/><path d="M91.547 108.933c-1.957 0-3.544-1.574-3.544-3.514 0-1.94 1.587-3.514 3.544-3.514s3.544 1.573 3.544 3.514c0 1.94-1.587 3.514-3.544 3.514z" fill="#FFF"/></g><g fill-rule="nonzero"><path d="M183.668 104.85a8.003 8.003 0 0 1 0 11.387c-3.17 3.146-8.313 3.146-11.485 0a8.005 8.005 0 0 1 0-11.388c3.171-3.145 8.314-3.145 11.485 0" fill="#7D8387"/><path fill="#FFF" d="M178.172 108.347l1.969 5.857-5.907-1.953z"/><path d="M234.2 116.237a8.004 8.004 0 0 1 0-11.388c3.17-3.145 8.312-3.145 11.484 0a8.004 8.004 0 0 1 0 11.388c-3.172 3.146-8.314 3.146-11.485 0" fill="#7D8387"/><path fill="#FFF" d="M240.68 105.907l-3.938 3.904-1.969-5.856 5.907 1.952"/><path d="M217.055 110.544c0 4.447-3.636 8.052-8.121 8.052s-8.12-3.605-8.122-8.052c.001-4.448 3.637-8.054 8.122-8.053 4.485-.001 8.12 3.605 8.12 8.053" fill="#7D8387"/><path fill="#FFF" d="M206.719 109.811h5.906l-2.953 5.857-2.953-5.857"/><path d="M270.95 102.49c4.484 0 8.12 3.606 8.12 8.053 0 4.448-3.636 8.053-8.12 8.053-4.486 0-8.122-3.605-8.122-8.053 0-4.447 3.636-8.052 8.121-8.052" fill="#FBB200"/><path fill="#FFF" d="M274.64 114.204v-5.857l5.907 2.928-5.906 2.929"/><path fill="#BFBFBF" d="M166.852 183.019h115.171V127.38H166.852z"/><path fill="#FFF" d="M282.023 150.674h-10.411v20.587H259.9v-10.293h-19.52v10.293h-20.823v10.294h-11.712v-30.88h-10.411V140.38h-9.11v20.587h-21.472v-1.287h20.17v-20.587h11.713v10.294h10.411v30.88h9.11v-10.293h20.822V159.68h22.123v10.294h9.11v-20.587h10.411"/><path d="M177.187 159.056h8.054v-.928h-8.054v.928zm16.108 0h8.054v-.928h-8.054v.928zm16.108 0h8.054v-.928h-8.054v.928zm16.108 0h8.054v-.928h-8.054v.928zm16.108 0h8.054v-.928h-8.054v.928zm16.108 0h8.054v-.928h-8.054v.928z" fill="#666B6F"/></g><g opacity=".8" fill-rule="nonzero"><path d="M21.734 54.258c5.039-2.197 8.553-7.14 8.555-12.894-.002-5.134-2.802-9.611-6.979-12.081v11.978c0 2.92-2.42 5.294-5.404 5.294h-4.05c-2.985-.001-5.403-2.371-5.403-5.297L8.45 29.283c-4.174 2.47-6.972 6.953-6.973 12.081 0 5.754 3.515 10.695 8.551 12.894v47.48c-3.365 1.96-5.625 5.552-5.625 9.666 0 6.214 5.14 11.25 11.48 11.25 6.338 0 11.48-5.035 11.48-11.25 0-4.114-2.263-7.706-5.628-9.665l-.001-47.481z" fill="#D8D8D8"/><path d="M16.43 117.276c-3.166 0-5.74-2.518-5.74-5.619 0-3.106 2.574-5.625 5.74-5.625 3.163 0 5.738 2.52 5.737 5.624 0 3.102-2.575 5.62-5.737 5.62z" fill="#FFF"/></g></g></svg>