<svg width="376" height="395" viewBox="0 0 376 395" xmlns="http://www.w3.org/2000/svg" xmlns:xlink="http://www.w3.org/1999/xlink"><title>connectivity</title><defs><linearGradient x1="50%" y1="0%" x2="50%" y2="100%" id="a"><stop stop-color="#FAD961" offset="0%"/><stop stop-color="#F76B1C" offset="100%"/></linearGradient><path d="M46.04 12.41c-.165.211-8.264.16-16.479.391l3.989-10.86c3.098.187 5.147.54 5.604.867 1.671 1.208 2.86 2.524 4 3.661 0 0 1.781 1.946 2.373 2.646l.512 3.294zm-29.133.462l3.806-10.719c4.592-.417 8.732-.423 11.891-.257l-3.896 10.937c-4.501.122-8.91.174-11.8.039zm-4.775-.129c.36-1.046.714-2.318 1.64-4.482.446-1.053 4.587-5.896 5.556-5.992l.592-.045-3.897 10.61c-1.793-.104-3.982.198-3.89-.09zm54.806 9.28c-.762-5.683-11.41-9.755-14.404-10.025-1.714-.16-4.873-3.101-8.16-7.732C41.106-.319 28.872.118 28.872.118S16.358-1.18 12.822 4.844c-.867 1.452-6.825 6.159-8.435 8.58-3.573 5.401-3.262 8.021-3.262 8.021-3.27 2.152 1.628 5.742 1.628 5.742.225.07.988.173 2.183.282 0-3.564 2.738-6.441 6.117-6.441 3.378 0 6.116 2.877 6.116 6.441l-.042 1.586c9.586.47 22.253.026 32.474 0l-.208-1.586c0-3.564 2.738-6.441 6.13-6.441 3.378 0 6.122 2.877 6.122 6.441l-.128 1.272c3.055-.2 5.269-.366 5.702-.99 2.445-3.583 0-3.73-.28-5.728z" id="b"/><path d="M10.67 5.124c0 2.696-2.163 4.898-4.839 4.898C3.15 10.022.992 7.82.992 5.124.992 2.409 3.15.226 5.832.226c2.675 0 4.838 2.183 4.838 4.898" id="d"/><path d="M10.09 5.343c0 2.696-2.175 4.898-4.838 4.898C2.57 10.24.419 8.039.419 5.343.419 2.628 2.57.444 5.252.444c2.663 0 4.839 2.184 4.839 4.899" id="f"/></defs><g transform="translate(1)" fill="none" fill-rule="evenodd"><path d="M50.415 119.42c-15.564 0-28.23 12.716-28.23 28.35 0 15.638 12.666 28.36 28.23 28.36h265.971c18.636 0 33.791-15.228 33.791-33.952 0-15.123-10.13-28.545-24.64-32.643l-5.267-1.493.196-6.517c.023-26.943-21.517-48.578-47.995-48.578-8.482 0-16.873 2.298-24.272 6.662l-7.514 4.44-2.725-8.318c-8.143-24.888-31.13-41.603-57.193-41.603-28.783 0-53.636 20.576-59.105 48.948l-1.4 7.287-7.18-1.771c-29.47-7.299-55.637 15.395-55.637 43.767v7.062h-7.03zm265.971 70.832H50.416c-23.316 0-42.286-19.065-42.286-42.483 0-21.137 15.45-38.714 35.612-41.944 3.498-31.897 32.38-56.472 65.761-52.253C118.677 22.15 147.616 0 180.767 0c29.435 0 55.683 17.277 67.617 43.745 7.624-3.236 15.818-4.926 24.087-4.926 33.07 0 60.189 26.109 61.986 58.891 17.772 7.293 29.786 24.877 29.786 44.468 0 26.503-21.476 48.074-47.857 48.074z" fill="url(#a)" fill-rule="nonzero"/><path d="M189.44 95.94c-11.225 0-20.327 9.099-20.327 20.325 0 11.225 9.102 20.326 20.326 20.326 11.226 0 20.326-9.101 20.326-20.326 0-11.226-9.1-20.326-20.326-20.326zm31.661 26.593a29.66 29.66 0 0 1-.93 3.409l6.682 4.677-5.604 9.505-7.488-3.33a30.616 30.616 0 0 1-2.542 2.488l3.402 7.332-9.71 5.49-4.777-6.543c-1.132.366-2.292.67-3.478.91l-.798 8.007h-11.21l-.797-8.006a31.804 31.804 0 0 1-3.48-.91l-4.778 6.541-9.707-5.489 3.401-7.332a30.333 30.333 0 0 1-2.541-2.488l-7.489 3.33-5.604-9.505 6.682-4.677a29.66 29.66 0 0 1-.93-3.409l-8.179-.78v-10.975l8.179-.78a29.76 29.76 0 0 1 .93-3.41l-6.682-4.677 5.604-9.505 7.489 3.33a30.926 30.926 0 0 1 2.541-2.49l-3.401-7.33 9.707-5.489 4.779 6.542a31.805 31.805 0 0 1 3.479-.91l.797-8.007h11.21l.798 8.007c1.186.24 2.346.544 3.478.91l4.778-6.542 9.709 5.49-3.402 7.33a31.52 31.52 0 0 1 2.542 2.49l7.488-3.33 5.604 9.504-6.682 4.678a29.76 29.76 0 0 1 .93 3.408l8.177.78v10.976l-8.177.78zM135.965 132.713c-5.388 0-9.756 4.004-9.756 8.944 0 4.938 4.368 8.943 9.756 8.943 5.389 0 9.757-4.005 9.757-8.943 0-4.94-4.368-8.944-9.757-8.944zm14.595 11.69a13.631 13.631 0 0 1-.445 1.596l3.201 2.19-2.685 4.449-3.588-1.56c-.382.412-.79.8-1.218 1.165l1.63 3.432-4.652 2.57-2.29-3.062c-.542.17-1.098.314-1.666.426l-.383 3.748h-5.371l-.382-3.748a15.531 15.531 0 0 1-1.667-.426l-2.29 3.062-4.651-2.57 1.63-3.432a14.382 14.382 0 0 1-1.218-1.164l-3.588 1.559-2.686-4.45 3.202-2.19c-.18-.518-.33-1.05-.446-1.594l-3.919-.366v-5.137l3.92-.365c.116-.545.266-1.076.445-1.596l-3.202-2.19 2.686-4.448 3.588 1.559c.382-.412.789-.8 1.217-1.166l-1.63-3.431 4.652-2.57 2.29 3.063a15.531 15.531 0 0 1 1.667-.427l.382-3.747h5.371l.383 3.747c.568.113 1.124.255 1.666.427l2.29-3.063 4.652 2.57-1.63 3.43c.428.367.835.755 1.218 1.167l3.588-1.56 2.685 4.45-3.201 2.19c.179.52.329 1.05.445 1.595l3.918.365v5.137l-3.918.366z" fill="#666B6F" fill-rule="nonzero" opacity=".108"/><path d="M241.474 87.809a7.318 7.318 0 1 0 0 14.635 7.318 7.318 0 0 0 0-14.635zm10.926 9.584c-.086.421-.197.832-.33 1.233l2.367 1.692-1.985 3.438-2.652-1.205c-.283.318-.584.619-.9.9l1.204 2.652-3.438 1.986-1.692-2.367c-.401.133-.812.243-1.232.33l-.283 2.896h-3.97l-.282-2.896c-.42-.087-.831-.197-1.232-.33l-1.693 2.367-3.438-1.986 1.205-2.652a10.853 10.853 0 0 1-.9-.9l-2.652 1.205-1.985-3.438 2.366-1.692a10.91 10.91 0 0 1-.33-1.233l-2.896-.282v-3.97l2.897-.282c.086-.42.197-.831.33-1.233l-2.367-1.692 1.985-3.438 2.652 1.205c.282-.318.583-.618.9-.9l-1.205-2.652 3.438-1.986 1.693 2.367c.4-.133.812-.243 1.232-.33l.282-2.896h3.97l.283 2.896c.42.087.83.197 1.232.33l1.692-2.367 3.438 1.986L248.9 86.8c.316.283.617.583.9.9l2.652-1.204 1.985 3.438-2.367 1.692c.133.402.244.812.33 1.233l2.896.282v3.97l-2.896.282zM137.404 95.94a7.318 7.318 0 1 0 0 14.634 7.318 7.318 0 0 0 0-14.635zm10.926 9.584c-.086.42-.197.831-.33 1.232l2.367 1.692-1.985 3.438-2.652-1.204c-.282.317-.583.618-.9.9l1.205 2.652-3.439 1.985-1.692-2.366c-.4.132-.812.243-1.232.33l-.282 2.895h-3.97l-.283-2.896c-.42-.086-.83-.197-1.232-.33l-1.693 2.367-3.438-1.985 1.205-2.652a10.853 10.853 0 0 1-.9-.9l-2.652 1.204-1.985-3.438 2.367-1.692a10.91 10.91 0 0 1-.33-1.232l-2.896-.283v-3.97l2.896-.282c.086-.42.197-.83.33-1.232l-2.367-1.692 1.985-3.438 2.652 1.204c.283-.317.583-.617.9-.9l-1.205-2.652 3.438-1.985 1.693 2.366c.401-.132.812-.242 1.232-.33l.283-2.895h3.97l.282 2.896c.42.087.831.197 1.232.33l1.692-2.367 3.439 1.985-1.205 2.652c.317.283.617.583.9.9l2.652-1.204 1.985 3.438-2.366 1.692c.132.401.243.812.33 1.232l2.895.283v3.97l-2.896.282z" fill="#C5C6C6" fill-rule="nonzero" opacity=".108"/><path d="M47.97 192.606v123.762M64.23 192.606v123.762" stroke="#979797" stroke-dasharray="2,2"/><path d="M56.1 192.606v123.762" stroke="#FBB200"/><path d="M319.1 192.606v123.762" stroke="#F5F5F5" stroke-width="21"/><path d="M319.23 192.606v123.762" stroke="#F9B11F" stroke-width="3" stroke-dasharray="2,2"/><rect width="110.574" height="71.548" rx="1" transform="translate(134.087 321.34)" fill="#FFF" fill-rule="nonzero" stroke="#D3D3D3" stroke-width="3"/><rect x=".813" y=".813" width="110.574" height="71.548" rx="1" transform="translate(261.8 320.34)" fill="#FFF" fill-rule="nonzero" stroke="#D3D3D3" stroke-width="3"/><rect x=".813" y=".813" width="110.574" height="71.548" rx="1" transform="translate(0 320.34)" fill="#FFF" fill-rule="nonzero" stroke="#D3D3D3" stroke-width="3"/><g transform="translate(178.617 190.878)"><path d="M11.15 126.022l-1.855-.745c-5.408-2.172-8.032-8.317-5.86-13.725a10.553 10.553 0 0 1 7.715-6.414 7.1 7.1 0 0 0 0-13.923 7.1 7.1 0 0 1 0-13.922 7.1 7.1 0 0 0 0-13.923 7.1 7.1 0 0 1 0-13.923 7.1 7.1 0 0 0 0-13.922 7.1 7.1 0 0 1 0-13.923 10.553 10.553 0 1 0 1.855-20.139L11.15.718" stroke="#979797"/><path d="M9.763 126.022l.895-.158c5.691-1 9.494-6.425 8.493-12.116a10.462 10.462 0 0 0-9.388-8.61 6.988 6.988 0 0 1 0-13.923 6.988 6.988 0 0 0 0-13.922 6.988 6.988 0 0 1 0-13.923 6.988 6.988 0 0 0 0-13.923 6.988 6.988 0 0 1 0-13.922 6.988 6.988 0 0 0 0-13.923C4.007 21.096-.25 16.02.257 10.264A10.462 10.462 0 0 1 8.867.875l.896-.157" stroke="#FBBB18" stroke-dasharray="6,2"/><circle stroke="#D3D3D3" stroke-width="2" fill="#FFF" fill-rule="nonzero" cx="140.757" cy="126.835" r="17.887"/><path d="M147.26 123.113l-5.843-6.035h-1.024v8.023l-4.698-4.852-1.443 1.49 5.722 5.909-5.722 5.908 1.443 1.49 4.698-4.85v8.021h1.024l5.844-6.035-4.401-4.534 4.4-4.535zm-4.82-1.987l1.924 1.987-1.924 1.988v-3.975zm1.924 11.056l-1.924 1.987v-3.974l1.924 1.987z" fill="#666B6F" fill-rule="nonzero"/></g><g transform="translate(154.478 347.983)"><mask id="c" fill="#fff"><use xlink:href="#b"/></mask><path d="M46.04 12.41c-.165.211-8.264.16-16.479.391l3.989-10.86c3.098.187 5.147.54 5.604.867 1.671 1.208 2.86 2.524 4 3.661 0 0 1.781 1.946 2.373 2.646l.512 3.294zm-29.133.462l3.806-10.719c4.592-.417 8.732-.423 11.891-.257l-3.896 10.937c-4.501.122-8.91.174-11.8.039zm-4.775-.129c.36-1.046.714-2.318 1.64-4.482.446-1.053 4.587-5.896 5.556-5.992l.592-.045-3.897 10.61c-1.793-.104-3.982.198-3.89-.09zm54.806 9.28c-.762-5.683-11.41-9.755-14.404-10.025-1.714-.16-4.873-3.101-8.16-7.732C41.106-.319 28.872.118 28.872.118S16.358-1.18 12.822 4.844c-.867 1.452-6.825 6.159-8.435 8.58-3.573 5.401-3.262 8.021-3.262 8.021-3.27 2.152 1.628 5.742 1.628 5.742.225.07.988.173 2.183.282 0-3.564 2.738-6.441 6.117-6.441 3.378 0 6.116 2.877 6.116 6.441l-.042 1.586c9.586.47 22.253.026 32.474 0l-.208-1.586c0-3.564 2.738-6.441 6.13-6.441 3.378 0 6.122 2.877 6.122 6.441l-.128 1.272c3.055-.2 5.269-.366 5.702-.99 2.445-3.583 0-3.73-.28-5.728z" fill="#666B6F" fill-rule="nonzero" mask="url(#c)"/></g><g transform="translate(159.73 370.748)"><mask id="e" fill="#fff"><use xlink:href="#d"/></mask><path d="M10.67 5.124c0 2.696-2.163 4.898-4.839 4.898C3.15 10.022.992 7.82.992 5.124.992 2.409 3.15.226 5.832.226c2.675 0 4.838 2.183 4.838 4.898" fill="#FBBB18" fill-rule="nonzero" mask="url(#e)"/></g><g transform="translate(205.26 370.496)"><mask id="g" fill="#fff"><use xlink:href="#f"/></mask><path d="M10.09 5.343c0 2.696-2.175 4.898-4.838 4.898C2.57 10.24.419 8.039.419 5.343.419 2.628 2.57.444 5.252.444c2.663 0 4.839 2.184 4.839 4.899" fill="#FBBB18" fill-rule="nonzero" mask="url(#g)"/></g><path d="M330.096 364.923c0 1.422-1.253 2.573-2.794 2.573h-17.178c-1.543 0-2.794-1.151-2.794-2.573v-17.62c0-1.422 1.25-2.573 2.794-2.573h17.178c1.541 0 2.794 1.151 2.794 2.573v17.62" fill="#FFFFFE" fill-rule="nonzero"/><path d="M42.927 375.555h22.924V348.76H42.927v26.795zm11.464 6.927a2.707 2.707 0 0 1-2.702-2.704 2.705 2.705 0 0 1 2.702-2.702 2.705 2.705 0 0 1 2.702 2.702 2.707 2.707 0 0 1-2.702 2.704zm-3.113-36.46h6.228c.475 0 .862.385.862.864a.862.862 0 0 1-.862.863h-6.228a.863.863 0 1 1 0-1.727zm10.253-3.938H47.25c-3.477 0-6.309 2.832-6.309 6.307v30.261a6.319 6.319 0 0 0 6.309 6.311H61.53a6.32 6.32 0 0 0 6.311-6.31V348.39c0-3.475-2.832-6.307-6.31-6.307z" fill="#666B6F" fill-rule="nonzero"/><path d="M54.614 377.908a2.364 2.364 0 0 0-2.361 2.358c0 1.301 1.06 2.361 2.36 2.361a2.363 2.363 0 0 0 2.36-2.36c0-1.3-1.058-2.36-2.36-2.36z" stroke="#FFFFFE" stroke-width=".25"/><circle stroke="#D3D3D3" stroke-width="2" fill="#FFF" fill-rule="nonzero" cx="55.287" cy="317.087" r="17.887"/><g fill="#666B6F" fill-rule="nonzero"><path d="M47.223 314.925c4.7-4.806 12.348-4.806 17.093.053l.106.122c.437.477 1.146.475 1.61.028a.131.131 0 0 0 .028-.023c.441-.452.434-1.205.006-1.673a3.002 3.002 0 0 0-.16-.18 14.16 14.16 0 0 0-20.318 0c-.45.461-.45 1.21.002 1.673.45.461 1.183.461 1.633 0"/><path d="M61.093 319.883l.107.115c.428.45 1.127.45 1.587.029.009-.01.018-.016.026-.024.433-.424.429-1.134.005-1.575a3.82 3.82 0 0 0-.158-.172c-3.811-3.727-10.013-3.727-13.825 0a1.1 1.1 0 0 0 0 1.577 1.157 1.157 0 0 0 1.612 0c2.921-2.858 7.678-2.858 10.646.05M57.545 322.682a2.44 2.44 0 1 1-3.453 3.448 2.44 2.44 0 0 1 3.453-3.448"/></g><circle stroke="#D3D3D3" stroke-width="2" fill="#FFF" fill-rule="nonzero" cx="188.887" cy="318.887" r="17.887"/><path fill="#666B6F" fill-rule="nonzero" d="M312.209 338.226h13.009v45.53h-13.009z"/><g transform="translate(307.33 349.609)" fill-rule="nonzero"><path d="M22.765 20.663c0 1.455-1.252 2.632-2.794 2.632H2.794C1.25 23.295 0 22.118 0 20.663V2.633C0 1.177 1.25 0 2.794 0h17.177c1.542 0 2.794 1.178 2.794 2.632v18.031z" stroke="#666B6F" stroke-width="1.305" fill="#FFF"/><circle fill="#FBBB18" cx="15.448" cy="13.822" r="5.691"/><circle fill="#FBBB18" cx="7.317" cy="7.317" r="2.439"/></g><g><path d="M176.991 306.33h24.392v24.392H176.99z"/><g transform="translate(185.325 310.664)"><path stroke="#666B6F" fill="#666B6F" d="M3.667 6.667l3.666 12H0z"/><path d="M3.69 1.565V8.87" stroke="#666B6F" stroke-linecap="square"/><circle fill="#666B6F" cx="3.69" cy="1.261" r="1.218"/></g><g fill="#666B6F" fill-rule="nonzero"><path d="M186.367 315.43c-1.78-1.74-1.78-4.573.02-6.33l.045-.04a.41.41 0 0 0 .002-.606.458.458 0 0 0-.62-.002c-.023.019-.045.038-.067.059a5.245 5.245 0 0 0 0 7.525c.171.167.449.167.62 0a.421.421 0 0 0 0-.606"/><path d="M187.192 310.358l.043-.04a.418.418 0 0 0 .01-.587l-.009-.01a.417.417 0 0 0-.583-.002 1.414 1.414 0 0 0-.064.059c-1.38 1.411-1.38 3.708 0 5.12a.407.407 0 0 0 .584 0 .429.429 0 0 0 0-.597c-1.058-1.082-1.058-2.844.019-3.943"/></g><g fill="#666B6F" fill-rule="nonzero"><path d="M191.616 315.43c1.78-1.74 1.78-4.573-.02-6.33l-.045-.04a.41.41 0 0 1-.002-.606.458.458 0 0 1 .62-.002c.023.019.045.038.066.059a5.245 5.245 0 0 1 0 7.525.445.445 0 0 1-.62 0 .421.421 0 0 1 0-.606"/><path d="M190.79 310.358l-.042-.04a.418.418 0 0 1-.01-.587l.008-.01a.417.417 0 0 1 .584-.002l.063.059c1.38 1.411 1.38 3.708 0 5.12a.407.407 0 0 1-.584 0 .429.429 0 0 1 0-.597c1.059-1.082 1.059-2.844-.018-3.943"/></g></g></g></svg>