<svg width="376" height="394" viewBox="0 0 376 394" xmlns="http://www.w3.org/2000/svg"><title>data_collection</title><defs><linearGradient x1="50%" y1="0%" x2="50%" y2="100%" id="a"><stop stop-color="#FAD961" offset="0%"/><stop stop-color="#F76B1C" offset="100%"/></linearGradient></defs><g fill="none" fill-rule="evenodd"><g transform="translate(130.08 316.442)" fill-rule="nonzero"><rect stroke="#FBB200" stroke-width="3" fill="#FFF" x=".827" y=".851" width="112.531" height="74.857" rx="1"/><path d="M81.51 54.144c-.72 0-1.304-.579-1.304-1.293 0-.715.584-1.293 1.304-1.293.72 0 1.304.578 1.304 1.293 0 .714-.585 1.293-1.304 1.293zm-4.887 0c-.721 0-1.303-.579-1.303-1.293 0-.715.582-1.293 1.303-1.293.72 0 1.303.578 1.303 1.293 0 .714-.583 1.293-1.303 1.293zm-5.31 0c-.719 0-1.303-.579-1.303-1.293 0-.715.584-1.293 1.304-1.293.72 0 1.303.578 1.303 1.293 0 .714-.584 1.293-1.303 1.293zm14.174-6.508H25.39a2.213 2.213 0 0 0-2.22 2.204v10.905c0 1.217.993 2.203 2.22 2.203h60.098c1.227 0 2.221-.986 2.221-2.203V49.84a2.212 2.212 0 0 0-2.22-2.204z" fill="#7D8387"/><path d="M46.114 55.967c0 1.003-.9 1.188-2.464 1.188H30.374c-1.565 0-2.464-.185-2.464-1.188v-2.73c0-1.002.898-1.186 2.464-1.186H43.65c1.565 0 2.464.184 2.464 1.187v2.73z" stroke="#FFF" fill="#FBB200"/><path d="M81.51 37.13c-.72 0-1.304-.578-1.304-1.293 0-.714.584-1.292 1.304-1.292.72 0 1.304.578 1.304 1.292 0 .715-.585 1.293-1.304 1.293zm-4.887 0c-.721 0-1.303-.578-1.303-1.293 0-.714.582-1.292 1.303-1.292.72 0 1.303.578 1.303 1.292 0 .715-.583 1.293-1.303 1.293zm-5.31 0c-.719 0-1.303-.578-1.303-1.293 0-.714.584-1.292 1.304-1.292.72 0 1.303.578 1.303 1.292 0 .715-.584 1.293-1.303 1.293zm14.174-6.507H25.39a2.212 2.212 0 0 0-2.22 2.203v10.906c0 1.217.993 2.203 2.22 2.203h60.098c1.227 0 2.221-.986 2.221-2.203V32.826a2.212 2.212 0 0 0-2.22-2.203z" fill="#7D8387"/><path d="M46.114 38.954c0 1.003-.9 1.188-2.464 1.188H30.374c-1.565 0-2.464-.185-2.464-1.188v-2.73c0-1.002.898-1.186 2.464-1.186H43.65c1.565 0 2.464.184 2.464 1.187v2.73z" stroke="#FFF" fill="#FBB200"/><path d="M81.51 20.118c-.72 0-1.304-.58-1.304-1.294 0-.714.584-1.292 1.304-1.292.72 0 1.304.578 1.304 1.292a1.3 1.3 0 0 1-1.304 1.294zm-4.887 0c-.721 0-1.303-.58-1.303-1.294 0-.714.582-1.292 1.303-1.292.72 0 1.303.578 1.303 1.292 0 .715-.583 1.294-1.303 1.294zm-5.31 0c-.719 0-1.303-.58-1.303-1.294 0-.714.584-1.292 1.304-1.292.72 0 1.303.578 1.303 1.292 0 .715-.584 1.294-1.303 1.294zm14.174-6.508H25.39a2.212 2.212 0 0 0-2.22 2.203v10.906c0 1.217.993 2.203 2.22 2.203h60.098c1.227 0 2.221-.986 2.221-2.203V15.813a2.211 2.211 0 0 0-2.22-2.203z" fill="#7D8387"/><path d="M46.114 21.941c0 1.003-.9 1.188-2.464 1.188H30.374c-1.565 0-2.464-.185-2.464-1.188v-2.73c0-1.002.898-1.186 2.464-1.186H43.65c1.565 0 2.464.184 2.464 1.187v2.73z" stroke="#FFF" fill="#FBB200"/></g><g transform="translate(260.814 316.442)" fill-rule="nonzero"><rect stroke="#FBB200" stroke-width="3" fill="#FFF" x=".827" y=".851" width="112.531" height="74.857" rx="1"/><path fill="#7D8387" d="M11.584 37.186h50.244V32.81H11.584zM11.584 54.199h50.244v-4.375H11.584zM11.584 19.686h89.363v-4.374H11.584z"/><path fill="#BFBFBF" d="M11.584 45.935h19.66V41.56h-19.66z"/><path fill="#FBB200" d="M11.584 62.948h19.66v-4.375h-19.66z"/><path fill="#BFBFBF" d="M11.584 28.436h63.351v-4.375h-63.35z"/><path fill="#FBB200" d="M79.304 28.436h19.013v-4.375H79.304z"/></g><g transform="translate(1 316.442)"><rect stroke="#FBB200" stroke-width="3" fill="#FFF" fill-rule="nonzero" x=".827" y=".851" width="112.531" height="74.857" rx="1"/><g transform="translate(67.85 10.208)" fill-rule="nonzero"><ellipse fill="#7D8387" cx="18.204" cy="17.013" rx="16.549" ry="17.013"/><path d="M0 18.714h16.549v17.013C7.409 35.727 0 28.11 0 18.714z" stroke="#FFF" stroke-width="2" fill="#FBB200"/></g><path stroke="#979797" stroke-width="2" d="M13.239 10.208v32.3h44.874"/><path stroke="#FBB200" d="M15.137 40.397l15.745-11.336 5.718 4.427 19.394-18.37"/><path fill="#D8D8D8" fill-rule="nonzero" d="M9.929 51.039h94.327v3.403H9.929zM9.929 56.143h28.133v3.403H9.929zM9.929 66.351h28.133v3.403H9.929zM9.929 61.247H54.61v3.403H9.929z"/></g><path d="M56.886 311.735c0-17.524 13.819-31.73 30.865-31.73h62.498c13.328 0 24.133-11.108 24.133-24.81M317.08 311.735c0-17.524-13.819-31.73-30.865-31.73h-62.498c-13.328 0-24.133-11.108-24.133-24.81M185.518 312.188v-54.441" stroke="#BFBFBF" stroke-linecap="round" stroke-dasharray="3,3"/><path d="M96.81 110.032v25.29l64.254 60.521a2 2 0 0 1 .628 1.456v54.8c.91.73 2.165 1.354 3.831 1.914 3.808 1.277 9.132 2.032 14.858 2.032 5.724 0 11.047-.755 14.856-2.033 1.667-.559 2.922-1.182 3.648-1.758.028-.022-1.373-14.619-4.202-43.79 0-10.308 1.753-17 5.895-20.248 37.608-31.79 58.586-49.31 63.373-52.914v-25.27a2 2 0 0 0-2-2H98.81a2 2 0 0 0-2 2zm64.72 141.902a.278.278 0 0 0 .02.023l-.02-.023zm102.535-116.717l.217-.16c-7.48 6.498-11.24 9.812-11.282 9.943l11.065-9.783z" stroke="url(#a)" stroke-width="13" transform="translate(1)"/><path d="M235.73 182.472c-17.133 0-31.007 13.907-31.007 31.041 0 17.132 13.875 31.041 31.007 31.041 17.134 0 31.007-13.908 31.007-31.041 0-17.135-13.872-31.041-31.007-31.041zm51.496 42.804a50.736 50.736 0 0 1-.878 3.286l10.88 7.784-10.446 18.105-12.176-5.534a50.886 50.886 0 0 1-2.425 2.429l5.536 12.195-18.054 10.431-7.767-10.87c-1.111.339-2.234.64-3.369.903l-1.297 13.307h-20.82l-1.297-13.307a51.304 51.304 0 0 1-3.37-.903l-7.77 10.87-18.05-10.43 5.536-12.196a50.43 50.43 0 0 1-2.425-2.43l-12.176 5.535-10.446-18.105 10.88-7.784a50.733 50.733 0 0 1-.878-3.286l-13.308-1.298v-20.93l13.308-1.298c.255-1.1.547-2.194.878-3.286l-10.88-7.784 10.446-18.105 12.176 5.534a51.337 51.337 0 0 1 2.426-2.43l-5.537-12.194 18.05-10.431 7.77 10.87a51.304 51.304 0 0 1 3.37-.903l1.297-13.307h20.82l1.297 13.307c1.135.263 2.258.564 3.369.903l7.767-10.87 18.054 10.43-5.537 12.196a52.292 52.292 0 0 1 2.425 2.43l12.177-5.535 10.446 18.105-10.88 7.784c.33 1.092.624 2.187.878 3.286l13.305 1.298v20.93l-13.305 1.298z" stroke="#FFF" stroke-width="2" fill="#666B6F" fill-rule="nonzero"/><g fill="#7D8387" fill-rule="nonzero"><path opacity=".161" d="M125.517 2.352l.362 1.502 2.497-1.367h.05v12.842h1.855V.63h-1.642zM140.148 14.036c-1.742 0-2.908-2.177-2.908-5.99 0-4 1.232-6.126 2.94-6.126 1.988 0 2.908 2.38 2.908 5.99 0 3.747-.953 6.126-2.94 6.126m.131-13.668c-2.908 0-4.961 2.733-4.961 7.66.033 4.86 1.922 7.544 4.715 7.544 3.187 0 4.977-2.75 4.977-7.746 0-4.691-1.725-7.458-4.731-7.458M151.441 14.036c-1.74 0-2.907-2.177-2.907-5.99 0-4 1.232-6.126 2.94-6.126 1.988 0 2.891 2.38 2.891 5.99 0 3.747-.936 6.126-2.924 6.126m.132-13.668c-2.908 0-4.961 2.733-4.961 7.66.033 4.86 1.922 7.544 4.714 7.544 3.187 0 4.978-2.75 4.978-7.746 0-4.691-1.725-7.458-4.731-7.458M162.254 2.485h.05v12.842h1.855V.646h-1.642l-3.122 1.704.378 1.502zM173.548 2.485h.049v12.842h1.856V.646h-1.643l-3.12 1.704.377 1.502zM185.323 14.036c-1.758 0-2.908-2.177-2.908-5.99 0-4 1.232-6.126 2.924-6.126 2.004 0 2.908 2.38 2.908 5.99 0 3.747-.953 6.126-2.924 6.126m.131-13.668c-2.908 0-4.977 2.733-4.977 7.66.049 4.86 1.938 7.544 4.73 7.544 3.171 0 4.978-2.75 4.978-7.746 0-4.691-1.725-7.458-4.73-7.458M196.135 2.485h.033v12.842h1.873V.646h-1.643L193.26 2.35l.395 1.502zM207.91 14.036c-1.757 0-2.907-2.177-2.907-5.99 0-4 1.232-6.126 2.924-6.126 2.004 0 2.907 2.38 2.907 5.99 0 3.747-.952 6.126-2.924 6.126m.132-13.668c-2.908 0-4.978 2.733-4.978 7.66.05 4.86 1.939 7.544 4.731 7.544 3.17 0 4.978-2.75 4.978-7.746 0-4.691-1.725-7.458-4.731-7.458M218.706 2.485h.05v12.842h1.872V.646h-1.642l-3.138 1.704.394 1.502zM230.498 14.036c-1.758 0-2.924-2.177-2.924-5.99 0-4 1.248-6.126 2.94-6.126 2.004 0 2.908 2.38 2.908 5.99 0 3.747-.953 6.126-2.924 6.126m.131-13.668c-2.907 0-4.977 2.733-4.977 7.66.033 4.86 1.922 7.544 4.73 7.544 3.171 0 4.978-2.75 4.978-7.746 0-4.691-1.741-7.458-4.73-7.458M241.808 1.925c2.004 0 2.908 2.38 2.908 5.974 0 3.763-.953 6.142-2.924 6.142-1.758 0-2.924-2.177-2.924-6.007 0-3.983 1.232-6.109 2.94-6.109m-.131 13.635c3.154 0 4.977-2.75 4.977-7.729 0-4.69-1.725-7.458-4.731-7.458-2.908 0-4.977 2.716-4.977 7.644.032 4.86 1.922 7.543 4.73 7.543"/><path opacity=".244" d="M125.517 29.478l.362 1.519 2.497-1.367h.05v12.842h1.855V27.757h-1.642zM140.148 41.16c-1.742 0-2.908-2.16-2.908-5.973 0-4.016 1.232-6.143 2.94-6.143 1.988 0 2.908 2.38 2.908 6.008 0 3.729-.953 6.108-2.94 6.108m.131-13.651c-2.908 0-4.961 2.733-4.961 7.66.033 4.86 1.922 7.544 4.715 7.544 3.187 0 4.977-2.768 4.977-7.763 0-4.674-1.725-7.441-4.731-7.441M151.441 41.16c-1.74 0-2.907-2.16-2.907-5.973 0-4.016 1.232-6.143 2.94-6.143 1.988 0 2.891 2.38 2.891 6.008 0 3.729-.936 6.108-2.924 6.108m.132-13.651c-2.908 0-4.961 2.733-4.961 7.66.033 4.86 1.922 7.544 4.714 7.544 3.187 0 4.978-2.768 4.978-7.763 0-4.674-1.725-7.441-4.731-7.441M162.254 29.627h.05v12.841h1.855V27.77h-1.642l-3.122 1.705.378 1.518zM173.548 29.627h.049v12.841h1.856V27.77h-1.643l-3.12 1.705.377 1.518zM185.323 41.16c-1.758 0-2.908-2.16-2.908-5.973 0-4.016 1.232-6.143 2.924-6.143 2.004 0 2.908 2.38 2.908 6.008 0 3.729-.953 6.108-2.924 6.108m.131-13.651c-2.908 0-4.977 2.733-4.977 7.66.049 4.86 1.938 7.544 4.73 7.544 3.171 0 4.978-2.768 4.978-7.763 0-4.674-1.725-7.441-4.73-7.441M196.616 41.16c-1.757 0-2.907-2.16-2.907-5.973 0-4.016 1.232-6.143 2.924-6.143 2.004 0 2.908 2.38 2.908 6.008 0 3.729-.953 6.108-2.925 6.108m.132-13.651c-2.908 0-4.978 2.733-4.978 7.66.05 4.86 1.939 7.544 4.731 7.544 3.171 0 4.978-2.768 4.978-7.763 0-4.674-1.725-7.441-4.731-7.441M207.91 41.16c-1.757 0-2.907-2.16-2.907-5.973 0-4.016 1.232-6.143 2.924-6.143 2.004 0 2.907 2.38 2.907 6.008 0 3.729-.952 6.108-2.924 6.108m.132-13.651c-2.908 0-4.978 2.733-4.978 7.66.05 4.86 1.939 7.544 4.731 7.544 3.17 0 4.978-2.768 4.978-7.763 0-4.674-1.725-7.441-4.731-7.441M218.706 29.627h.05v12.841h1.872V27.77h-1.642l-3.138 1.705.394 1.518zM230.498 41.16c-1.758 0-2.924-2.16-2.924-5.973 0-4.016 1.248-6.143 2.94-6.143 2.004 0 2.908 2.38 2.908 6.008 0 3.729-.953 6.108-2.924 6.108m.131-13.651c-2.907 0-4.977 2.733-4.977 7.66.033 4.86 1.922 7.544 4.73 7.544 3.171 0 4.978-2.768 4.978-7.763 0-4.674-1.741-7.441-4.73-7.441M243.203 42.463V27.765h-1.643l-3.121 1.705.361 1.518 2.497-1.367h.05v12.842z"/><path opacity=".515" d="M125.517 56.62l.362 1.518 2.497-1.384h.05V69.58h1.855V54.898h-1.642zM141.575 69.587v-14.68h-1.643l-3.12 1.72.36 1.503 2.498-1.384h.049v12.841zM151.441 68.302c-1.74 0-2.907-2.177-2.907-5.974 0-4.016 1.232-6.142 2.94-6.142 1.988 0 2.891 2.379 2.891 5.99 0 3.746-.936 6.126-2.924 6.126m.132-13.635c-2.908 0-4.961 2.717-4.961 7.644.033 4.843 1.922 7.526 4.714 7.526 3.187 0 4.978-2.75 4.978-7.745 0-4.675-1.725-7.425-4.731-7.425M162.254 56.75h.05v12.842h1.855v-14.68h-1.642l-3.122 1.704.378 1.519zM174.029 68.302c-1.758 0-2.908-2.177-2.908-5.974 0-4.016 1.232-6.142 2.94-6.142 1.988 0 2.892 2.379 2.892 5.99 0 3.746-.953 6.126-2.924 6.126m.131-13.635c-2.907 0-4.977 2.717-4.977 7.644.05 4.843 1.938 7.526 4.73 7.526 3.188 0 4.978-2.75 4.978-7.745 0-4.675-1.724-7.425-4.73-7.425M181.986 56.62l.362 1.518 2.497-1.384h.033V69.58h1.872V54.898h-1.659zM198.044 69.587v-14.68h-1.66l-3.12 1.72.377 1.503 2.497-1.384h.033v12.841zM207.91 68.302c-1.757 0-2.907-2.177-2.907-5.974 0-4.016 1.232-6.142 2.924-6.142 2.004 0 2.907 2.379 2.907 5.99 0 3.746-.952 6.126-2.924 6.126m.132-13.635c-2.908 0-4.978 2.717-4.978 7.644.05 4.843 1.939 7.526 4.731 7.526 3.17 0 4.978-2.75 4.978-7.745 0-4.675-1.725-7.425-4.731-7.425M219.204 68.302c-1.758 0-2.908-2.177-2.908-5.974 0-4.016 1.232-6.142 2.924-6.142 2.005 0 2.908 2.379 2.908 5.99 0 3.746-.953 6.126-2.924 6.126m.131-13.635c-2.907 0-4.977 2.717-4.977 7.644.05 4.843 1.938 7.526 4.731 7.526 3.17 0 4.978-2.75 4.978-7.745 0-4.675-1.725-7.425-4.732-7.425M231.925 69.587v-14.68h-1.659l-3.121 1.72.378 1.503 2.497-1.384h.033v12.841zM241.792 68.302c-1.758 0-2.924-2.177-2.924-5.974 0-4.016 1.248-6.142 2.94-6.142 2.004 0 2.908 2.379 2.908 5.99 0 3.746-.953 6.126-2.924 6.126m.131-13.635c-2.908 0-4.977 2.717-4.977 7.644.032 4.843 1.922 7.526 4.73 7.526 3.171 0 4.978-2.75 4.978-7.745 0-4.675-1.725-7.425-4.731-7.425"/><path opacity=".782" d="M125.517 83.76l.362 1.502 2.497-1.367h.05V96.72h1.855V82.022h-1.642zM140.148 95.443c-1.742 0-2.908-2.177-2.908-5.99 0-4 1.232-6.126 2.94-6.126 1.988 0 2.908 2.362 2.908 5.99 0 3.73-.953 6.126-2.94 6.126m.131-13.669c-2.908 0-4.961 2.734-4.961 7.661.033 4.86 1.922 7.526 4.715 7.526 3.187 0 4.977-2.75 4.977-7.745 0-4.674-1.725-7.442-4.731-7.442M148.105 83.76l.361 1.502 2.497-1.367h.033V96.72h1.873V82.022h-1.643zM162.735 95.443c-1.758 0-2.907-2.177-2.907-5.99 0-4 1.232-6.126 2.94-6.126 1.988 0 2.891 2.362 2.891 5.99 0 3.73-.936 6.126-2.924 6.126m.132-13.669c-2.908 0-4.978 2.734-4.978 7.661.05 4.86 1.939 7.526 4.731 7.526 3.187 0 4.978-2.75 4.978-7.745 0-4.674-1.725-7.442-4.731-7.442M170.693 83.76l.361 1.502 2.497-1.367h.05V96.72h1.855V82.022h-1.659zM181.986 83.76l.362 1.502 2.497-1.367h.033V96.72h1.872V82.022h-1.659zM196.616 95.443c-1.757 0-2.907-2.177-2.907-5.99 0-4 1.232-6.126 2.924-6.126 2.004 0 2.908 2.362 2.908 5.99 0 3.73-.953 6.126-2.925 6.126m.132-13.669c-2.908 0-4.978 2.734-4.978 7.661.05 4.86 1.939 7.526 4.731 7.526 3.171 0 4.978-2.75 4.978-7.745 0-4.674-1.725-7.442-4.731-7.442M204.557 83.76l.378 1.502 2.497-1.367h.033V96.72h1.873V82.022h-1.66zM215.851 83.76l.378 1.502 2.48-1.367h.05V96.72h1.873V82.022h-1.66zM230.498 95.443c-1.758 0-2.924-2.177-2.924-5.99 0-4 1.248-6.126 2.94-6.126 2.004 0 2.908 2.362 2.908 5.99 0 3.73-.953 6.126-2.924 6.126m.131-13.669c-2.907 0-4.977 2.734-4.977 7.661.033 4.86 1.922 7.526 4.73 7.526 3.171 0 4.978-2.75 4.978-7.745 0-4.674-1.741-7.442-4.73-7.442M238.439 83.76l.361 1.502 2.497-1.367h.05V96.72h1.856V82.022h-1.643z"/></g></g></svg>