<svg width="375" height="312" viewBox="0 0 375 312" xmlns="http://www.w3.org/2000/svg" xmlns:xlink="http://www.w3.org/1999/xlink"><title>data_analytics</title><defs><linearGradient x1="50%" y1="0%" x2="50%" y2="129.005%" id="b"><stop stop-color="#FAD961" offset="0%"/><stop stop-color="#F76B1C" offset="100%"/></linearGradient><path d="M30.064 24h314.872a6 6 0 0 1 6 6v229a6 6 0 0 1-6 6H30.064a6 6 0 0 1-6-6V30a6 6 0 0 1 6-6z" id="a"/><mask id="c" x="0" y="0" width="326.872" height="241" fill="#fff"><use xlink:href="#a"/></mask><path id="d" d="M0 0h80.214v80H0z"/></defs><g fill="none" fill-rule="evenodd"><path d="M98.785 293h177.623a2 2 0 0 1 1.907 1.396l4.75 15a2 2 0 0 1-1.907 2.604H93.244a2 2 0 0 1-1.876-2.693l5.54-15A2 2 0 0 1 98.786 293z" fill="#9B9B9B"/><rect stroke="url(#b)" stroke-width="13" fill="#FFF" x="6.5" y="6.5" width="362" height="276" rx="6"/><use stroke="#9B9B9B" mask="url(#c)" stroke-width="2" stroke-dasharray="3" xlink:href="#a"/><g transform="translate(9.024 89)"><g transform="translate(58.155 6)"><mask id="e" fill="#fff"><use xlink:href="#d"/></mask><g mask="url(#e)"><g transform="translate(1.003 -1)"><rect fill="#F9B11F" y="14" width="17.045" height="49" rx="1"/><rect fill="#F9B11F" x="19.719" y="3" width="17.045" height="60" rx="1"/><path d="M45.109 25c-.548 0-.803.404-.577.92 0 0 3.596 7.228 3.596 17.08 0 9.852-3.668 19.078-3.668 19.078-.19.509.098.922.649.922h10.384a.998.998 0 0 0 .991-.997V25.997c0-.55-.44-.997-.991-.997H45.109z" fill="#303941" opacity=".32"/><rect fill="#303941" opacity=".16" x="63.168" width="15.04" height="63.333" rx="1"/><path d="M41.11 21h2.005c3.342 6.133 5.013 11.8 5.013 17 1.251 11.06-1.002 15.667-4.512 25H41.11V21z" fill="#303941" opacity=".32"/></g></g></g><path d="M30.688 91.98c1.01-1.248.91-3.162-.222-4.275-1.132-1.113-2.868-1.003-3.877.245L.697 119.957c-1.01 1.248-.91 3.162.221 4.275 1.132 1.113 2.868 1.003 3.878-.244L30.688 91.98zm31.173 5.318c26.749 0 48.433-21.626 48.433-48.303C110.294 22.317 88.61.69 61.861.69 35.113.691 13.43 22.317 13.43 48.995c0 26.677 21.684 48.303 48.432 48.303z" stroke="#979797" stroke-width="9" stroke-linecap="round"/><ellipse fill="#D8D8D8" opacity=".411" cx="61.664" cy="49.191" rx="46.624" ry="46.5"/></g><path d="M229.111 57.5h106.283M229.111 91.5h106.283M229.111 74.5h106.283" stroke="#9B9B9B" stroke-width="7" stroke-linecap="round"/><rect fill="#303941" opacity=".571" x="209.559" y="88" width="8.021" height="8" rx="4"/><rect fill="#303941" opacity=".571" x="209.559" y="71" width="8.021" height="8" rx="4"/><rect fill="#303941" opacity=".571" x="209.559" y="53" width="8.021" height="8" rx="4"/><path d="M224.098 207.5l36.237-25.097M280.247 197.5l48.129-31M260.695 182l17.547 16.5" stroke="#979797" stroke-width="5" stroke-linecap="round"/><rect stroke="#9B9B9B" fill="#FFF" x="257.184" y="178.5" width="9.027" height="9" rx="4.5"/><rect stroke="#9B9B9B" fill="#FFF" x="219.083" y="202.5" width="9.027" height="9" rx="4.5"/><rect stroke="#9B9B9B" fill="#FFF" x="275.233" y="193.5" width="10.029" height="10" rx="5"/><path stroke="#979797" fill="#9B9B9B" d="M336.933 160.061l-5.733 9.123-4.715-6.49z"/><path d="M214.07 135.5v100M340.408 223.5H201.036" stroke="#303941" opacity=".16" stroke-linecap="square"/><path fill="#F9B11F" d="M70.187 208h7.019v7h-7.019z"/><path d="M85.729 211.5h44.117" stroke="#979797" stroke-width="3" stroke-linecap="round"/><path fill="#303941" opacity=".16" d="M70.187 222h7.019v7h-7.019z"/><path d="M85.729 225.5h44.117" stroke="#979797" stroke-width="3" stroke-linecap="round"/><path fill="#303941" opacity=".32" d="M70.187 236h7.019v7h-7.019z"/><path d="M85.729 239.5h44.117" stroke="#979797" stroke-width="3" stroke-linecap="round"/><path d="M107.787 302.5H266.21" stroke="#D8D8D8" stroke-linecap="square" stroke-dasharray="3"/></g></svg>