<svg width="374" height="312" viewBox="0 0 374 312" xmlns="http://www.w3.org/2000/svg" xmlns:xlink="http://www.w3.org/1999/xlink"><title>data_visualization</title><defs><rect id="b" width="374" height="312" rx="6"/><linearGradient x1="50%" y1="0%" x2="50%" y2="100%" id="c"><stop stop-color="#FAD961" offset="0%"/><stop stop-color="#F76B1C" offset="100%"/></linearGradient><path id="e" d="M0 0h94v84H0z"/><path d="M12 6h350a6 6 0 0 1 6 6v288a6 6 0 0 1-6 6H12a6 6 0 0 1-6-6V12a6 6 0 0 1 6-6z" id="a"/><mask id="g" x="0" y="0" width="362" height="300" fill="#fff"><use xlink:href="#a"/></mask><path d="M108.946 35.07C99.766 14.41 79.066 0 55 0 30.86 0 10.105 14.499.97 35.264A4448.994 4448.994 0 0 0 32 50c5.972-9.953 13.638-14.93 23-14.93S71.695 40.048 77 50c15.333-7.333 25.982-12.31 31.946-14.93z" id="h"/></defs><g fill="none" fill-rule="evenodd"><mask id="d" fill="#fff"><use xlink:href="#b"/></mask><path d="M6.5 6.5V299a6.5 6.5 0 0 0 6.5 6.5h354.5V13a6.5 6.5 0 0 0-6.5-6.5H6.5z" stroke="url(#c)" stroke-width="13" fill="#FFF" mask="url(#d)"/><path fill="#F5F5F5" mask="url(#d)" d="M201 185h141v84H201z"/><path d="M6 0h74v312H6a6 6 0 0 1-6-6V6a6 6 0 0 1 6-6z" fill="#9B9B9B" mask="url(#d)"/><path d="M80 0h288a6 6 0 0 1 6 6v26H80V0z" fill="#D8D8D8" mask="url(#d)"/><rect fill="#FFF" mask="url(#d)" x="20" y="64" width="40" height="4" rx="1"/><rect fill="#FFF" mask="url(#d)" x="20" y="92" width="40" height="4" rx="1"/><rect fill="#FFF" mask="url(#d)" x="20" y="120" width="40" height="4" rx="1"/><rect fill="#FFF" mask="url(#d)" x="20" y="148" width="40" height="4" rx="1"/><circle fill="#FFF" mask="url(#d)" cx="350" cy="19" r="8"/><rect fill="#F5F5F5" mask="url(#d)" x="93" y="59" width="254" height="93" rx="1"/><g mask="url(#d)"><g transform="translate(93 185)"><mask id="f" fill="#fff"><use xlink:href="#e"/></mask><use fill="#F5F5F5" xlink:href="#e"/><path d="M0 60c1.333 1.333 5.667 2 13 2 14 0 8-12.88 25-9 10.786 2.462 6.053-13 19-13 4.424 0 3.219 9.12 12 9.12 6 0 17.956-39.982 24-40.12 4.03-.092 4.696 24.908 2 75H0V60z" fill="#F9B11F" mask="url(#f)"/></g></g><g stroke-linecap="square" stroke-linejoin="round" stroke-dasharray="3" mask="url(#d)" stroke="#D8D8D8" stroke-width="2"><use mask="url(#g)" xlink:href="#a"/></g><g mask="url(#d)" stroke="#9B9B9B" stroke-linecap="round" stroke-width="7"><path d="M201.5 130.5h129.894M201.5 103.5h129.894M201.5 80.5h129.894M105.111 80.5H160.5"/></g><g mask="url(#d)"><g transform="translate(214 207)"><mask id="i" fill="#fff"><use xlink:href="#h"/></mask><use fill="#F7AD41" xlink:href="#h"/><path fill="#D8D8D8" mask="url(#i)" d="M68 41l25-29 19 22-35 18z"/><path d="M55.5.5v34" stroke="#FFF" stroke-linecap="round" stroke-dasharray="3"/><circle fill="#303941" cx="55" cy="60" r="5"/><path d="M97.048 6.42c.92.718-12.527 19.823-40.338 57.315l-5.516-4.31C80.844 23.37 96.129 5.702 97.048 6.42z" fill="#303941"/></g></g><g mask="url(#d)" stroke="#FFF" stroke-dasharray="3"><path d="M80.5 6.5h287M367.5 31.5v-25"/></g></g></svg>