<svg width="388" height="446" viewBox="0 0 388 446" xmlns="http://www.w3.org/2000/svg" xmlns:xlink="http://www.w3.org/1999/xlink"><title>twins</title><defs><linearGradient x1="0%" y1="0%" x2="0%" y2="100%" id="a"><stop stop-color="#FFCD69" offset="0%"/><stop stop-color="#F59A1B" offset="100%"/></linearGradient><linearGradient x1="50%" y1="0%" x2="50%" y2="100%" id="b"><stop stop-color="#FAD961" offset="0%"/><stop stop-color="#F76B1C" offset="100%"/></linearGradient><path d="M5 38h82V0h21v38h16a5 5 0 0 1 5 5v43a5 5 0 0 1-5 5H5a5 5 0 0 1-5-5V43a5 5 0 0 1 5-5zm69 11a2 2 0 0 0-2 2v15a2 2 0 0 0 2 2h42a2 2 0 0 0 2-2V51a2 2 0 0 0-2-2H74z" id="c"/></defs><g fill="none" fill-rule="evenodd"><path fill="#D8D8D8" opacity=".56" d="M11 119L194 14v420L13 327z"/><path fill="#FFF" d="M380 119L197 14v420l181-107z"/><path fill="url(#a)" d="M183 4h8v423h-8z" transform="translate(7 7)"/><path d="M188.061.577l3.195 1.845 181.867 105a2 2 0 0 1 1 1.733v213.69a2 2 0 0 1-1 1.732L188.061 431.423a2 2 0 0 1-2 0L1 324.577a2 2 0 0 1-1-1.732v-213.69a2 2 0 0 1 1-1.732L182.685 2.527l3.376-1.95a2 2 0 0 1 2 0z" stroke="url(#b)" stroke-width="13" transform="translate(7 7)"/><path d="M194.06 7l4.194 2.422L381.12 114.999v215.998l-187.06 108L7 330.997V115L189.684 9.527 194.06 7z" stroke="#D8D8D8" stroke-dasharray="2"/><path d="M194.364 33l3.69 2.13L358.909 128v190l-164.545 95L29.82 318V128l160.696-92.777 3.85-2.223z" stroke="#979797" stroke-dasharray="3"/><g transform="translate(46 176)"><path d="M106.5 3.5h-15v38H5A1.5 1.5 0 0 0 3.5 43v43A1.5 1.5 0 0 0 5 87.5h119a1.5 1.5 0 0 0 1.5-1.5V43a1.5 1.5 0 0 0-1.5-1.5h-17.5v-38z" stroke="#303941" stroke-width="7" fill="#F5F5F5" opacity=".58"/><rect fill="#303941" opacity=".571" x="14" y="54" width="8" height="8" rx="4"/><rect fill="#303941" opacity=".571" x="38" y="54" width="8" height="8" rx="4"/><rect fill="#9B9B9B" opacity=".571" x="26" y="54" width="8" height="8" rx="4"/><rect fill="#303941" opacity=".571" x="14" y="66" width="8" height="8" rx="4"/><rect fill="#303941" opacity=".571" x="38" y="66" width="8" height="8" rx="4"/><rect fill="#9B9B9B" opacity=".571" x="26" y="66" width="8" height="8" rx="4"/><rect fill="#303941" opacity=".571" x="70" y="54" width="45" height="20" rx="2"/></g><g transform="translate(213 178)"><mask id="d" fill="#fff"><use xlink:href="#c"/></mask><text mask="url(#d)" font-family="OpenSans-Bold, Open Sans" font-size="9" font-weight="bold" fill="#767C80"><tspan x="0" y="10">195068473920395769403275565</tspan> <tspan x="0" y="23">586966093758316452918474655</tspan> <tspan x="0" y="36">889586746675849393837584937</tspan> <tspan x="0" y="49">758699890974636284922536575</tspan> <tspan x="0" y="62">451265719384336859025568720</tspan> <tspan x="0" y="75">388839484756320983746598798</tspan> <tspan x="0" y="88">153426372635474569803283747</tspan> </text></g></g></svg>